<?xml version="1.0" encoding="UTF-8" standalone="no"?>
<svg
   xmlns:dc="http://purl.org/dc/elements/1.1/"
   xmlns:cc="http://creativecommons.org/ns#"
   xmlns:rdf="http://www.w3.org/1999/02/22-rdf-syntax-ns#"
   xmlns:svg="http://www.w3.org/2000/svg"
   xmlns="http://www.w3.org/2000/svg"
   xmlns:sodipodi="http://sodipodi.sourceforge.net/DTD/sodipodi-0.dtd"
   xmlns:inkscape="http://www.inkscape.org/namespaces/inkscape"
   version="1.1"
   id="Capa_1"
   x="0px"
   y="0px"
   viewBox="0 0 477.175 477.175"
   style="enable-background:new 0 0 477.175 477.175;"
   xml:space="preserve"
   sodipodi:docname="user-light (copy 1).svg"
   inkscape:version="0.92.5 (2060ec1f9f, 2020-04-08)"><metadata
   id="metadata13"><rdf:RDF><cc:Work
       rdf:about=""><dc:format>image/svg+xml</dc:format><dc:type
         rdf:resource="http://purl.org/dc/dcmitype/StillImage" /></cc:Work></rdf:RDF></metadata><defs
   id="defs11" /><sodipodi:namedview
   pagecolor="#ffffff"
   bordercolor="#666666"
   borderopacity="1"
   objecttolerance="10"
   gridtolerance="10"
   guidetolerance="10"
   inkscape:pageopacity="0"
   inkscape:pageshadow="2"
   inkscape:window-width="1366"
   inkscape:window-height="744"
   id="namedview9"
   showgrid="false"
   inkscape:zoom="0.98915495"
   inkscape:cx="238.58749"
   inkscape:cy="100.52161"
   inkscape:window-x="0"
   inkscape:window-y="24"
   inkscape:window-maximized="1"
   inkscape:current-layer="Capa_1" /> <path
   d="m 387.22509,338.59606 -74.53495,-37.05802 c -7.0299,-3.49941 -11.39916,-10.52928 -11.39916,-18.35059 v -26.23387 c 1.78671,-2.17259 3.66711,-4.6478 5.60982,-7.37901 9.667,-13.57868 17.41464,-28.69359 23.0479,-44.99571 11.009,-5.02027 18.15584,-15.84434 18.15584,-28.06514 v -31.03686 c 0,-7.47209 -2.8088,-14.71142 -7.80229,-20.36795 V 83.837636 c 0.43663,-4.267543 2.15343,-29.671251 -16.32226,-50.62885 C 307.95416,15.028923 281.94921,5.8109564 246.67521,5.8109564 c -35.27402,0 -61.27894,9.2179666 -77.3048,27.3900066 -18.47576,20.95768 -16.75929,46.36913 -16.32233,50.636673 v 41.271274 c -4.99342,5.65653 -7.80229,12.89586 -7.80229,20.36795 v 31.03686 c 0,9.44298 4.31471,18.2497 11.68003,24.12343 7.14685,28.14264 22.10374,49.34867 27.33125,56.15343 v 25.67526 c 0,7.51097 -4.11958,14.40116 -10.74364,18.00138 l -69.60394,37.7564 c -22.634388,12.28282 -36.686249,35.82426 -36.686249,61.46073 v 25.12434 c 0,36.82525 117.384949,46.55535 179.451969,46.55535 62.06693,0 179.45197,-9.7301 179.45197,-46.55535 v -23.61131 c 0,-26.67614 -14.91019,-50.66763 -38.90209,-62.60132 z m 23.29751,86.21263 c 0,10.52927 -57.83031,31.03684 -163.84739,31.03684 -106.01708,0 -163.847475,-20.50757 -163.847475,-31.03684 v -25.12434 c 0,-19.94897 10.938754,-38.284 28.548445,-47.8278 l 69.60394,-37.75639 c 11.64884,-6.32376 18.88152,-18.4514 18.88152,-31.63432 v -31.18426 l -1.81791,-2.15705 c -0.18736,-0.22493 -19.31064,-23.23111 -26.60572,-54.81888 l -0.70984,-3.07269 -2.66055,-1.70701 c -4.5175,-2.90194 -7.21708,-7.76694 -7.21708,-13.01223 v -31.03686 c 0,-4.35287 1.85695,-8.41096 5.22749,-11.44485 l 2.5747,-2.30447 V 83.403165 l -0.0742,-1.016459 c -0.0248,-0.209465 -2.67614,-21.718068 12.52266,-38.959062 12.92835,-14.664883 34.99314,-22.098262 65.57021,-22.098262 30.4678,0 52.48578,7.379019 65.42972,21.943087 15.19098,17.077993 12.67867,38.928011 12.66308,39.114237 l -0.066,49.340834 2.57471,2.31221 c 3.37055,3.02615 5.22749,7.08424 5.22749,11.43711 v 31.03686 c 0,6.7738 -4.46285,12.70189 -11.09474,14.7348 l -3.88559,1.18712 -1.24831,3.84082 c -5.21974,16.14694 -12.6553,31.06015 -22.11168,44.32838 -2.31717,3.26666 -4.57205,6.16086 -6.53045,8.37224 l -1.94278,2.2036 v 32.00677 c 0,13.73382 7.66965,26.07877 20.02063,32.22404 l 74.53498,37.058 c 18.67864,9.28783 30.28058,27.95652 30.28058,48.72789 z"
   id="path2-3"
   inkscape:connector-curvature="0"
   style="stroke-width:7.78070879" /><path
   inkscape:connector-curvature="0"
   d="m 291.27279,375.19046 h -37.35883 v -37.35923 c 0,-2.10317 -3.20342,-5.16274 -7.57561,-5.06391 -4.83289,0.10922 -7.64398,2.96185 -7.57561,5.06391 v 37.35923 h -37.35883 c -2.10316,0 -5.02796,2.49948 -5.06387,7.57569 -0.0389,5.50181 2.9619,7.64635 5.06387,7.57569 h 37.35883 v 37.35921 c 0,2.10318 2.06543,5.06393 7.57561,5.06393 5.51019,0 7.57561,-2.96075 7.57561,-5.06393 v -37.35921 h 37.35883 c 2.10316,0 4.93556,-2.06777 5.06387,-7.57569 0.11259,-4.83286 -2.9619,-7.64635 -5.06387,-7.57569 z"
   id="path2-6"
   sodipodi:nodetypes="scssscssscssscsss"
   style="stroke-width:0.19040118" /></svg>