<?xml version="1.0" encoding="UTF-8" standalone="no"?>
<!-- Generator: Adobe Illustrator 19.0.0, SVG Export Plug-In . SVG Version: 6.00 Build 0)  -->

<svg
   xmlns:dc="http://purl.org/dc/elements/1.1/"
   xmlns:cc="http://creativecommons.org/ns#"
   xmlns:rdf="http://www.w3.org/1999/02/22-rdf-syntax-ns#"
   xmlns:svg="http://www.w3.org/2000/svg"
   xmlns="http://www.w3.org/2000/svg"
   xmlns:sodipodi="http://sodipodi.sourceforge.net/DTD/sodipodi-0.dtd"
   xmlns:inkscape="http://www.inkscape.org/namespaces/inkscape"
   version="1.1"
   id="Capa_1"
   x="0px"
   y="0px"
   viewBox="0 0 384 384"
   style="enable-background:new 0 0 384 384;"
   xml:space="preserve"
   sodipodi:docname="gps.svg"
   inkscape:version="0.92.5 (2060ec1f9f, 2020-04-08)"><metadata
   id="metadata49"><rdf:RDF><cc:Work
       rdf:about=""><dc:format>image/svg+xml</dc:format><dc:type
         rdf:resource="http://purl.org/dc/dcmitype/StillImage" /></cc:Work></rdf:RDF></metadata><defs
   id="defs47" /><sodipodi:namedview
   pagecolor="#ffffff"
   bordercolor="#666666"
   borderopacity="1"
   objecttolerance="10"
   gridtolerance="10"
   guidetolerance="10"
   inkscape:pageopacity="0"
   inkscape:pageshadow="2"
   inkscape:window-width="1366"
   inkscape:window-height="744"
   id="namedview45"
   showgrid="false"
   inkscape:zoom="0.61458333"
   inkscape:cx="192"
   inkscape:cy="192"
   inkscape:window-x="0"
   inkscape:window-y="24"
   inkscape:window-maximized="1"
   inkscape:current-layer="g4" />
<g
   id="g6">
	<g
   id="g4">
		<path
   d="m 192,136 c -30.872,0 -56,25.12 -56,56 0,30.88 25.128,56 56,56 30.872,0 56,-25.12 56,-56 0,-30.88 -25.128,-56 -56,-56 z m 0,80 c -0.22424,13.2301 0.40678,-10.768 0.40678,-24 0,-13.232 4.86032,-11.86149 -0.40678,-24 0,0 -0.40678,10.768 -0.40678,24 0,13.232 0.81356,0 0.40678,24 z"
   id="path2"
   inkscape:connector-curvature="0"
   sodipodi:nodetypes="ssssssssss" />
	</g>
</g>
<g
   id="g12">
	<g
   id="g10">
		<path
   d="M368,176h-32.944C327.648,109.368,274.632,56.352,208,48.944V16c0-8.832-7.168-16-16-16c-8.832,0-16,7.168-16,16v32.944    C109.368,56.352,56.352,109.368,48.944,176H16c-8.832,0-16,7.168-16,16c0,8.832,7.168,16,16,16h32.944    C56.352,274.632,109.368,327.648,176,335.056V368c0,8.832,7.168,16,16,16c8.832,0,16-7.168,16-16v-32.944    c66.632-7.408,119.648-60.424,127.056-127.056H368c8.832,0,16-7.168,16-16C384,183.168,376.832,176,368,176z M192,304    c-61.76,0-112-50.24-112-112S130.24,80,192,80s112,50.24,112,112S253.76,304,192,304z"
   id="path8" />
	</g>
</g>
<g
   id="g14">
</g>
<g
   id="g16">
</g>
<g
   id="g18">
</g>
<g
   id="g20">
</g>
<g
   id="g22">
</g>
<g
   id="g24">
</g>
<g
   id="g26">
</g>
<g
   id="g28">
</g>
<g
   id="g30">
</g>
<g
   id="g32">
</g>
<g
   id="g34">
</g>
<g
   id="g36">
</g>
<g
   id="g38">
</g>
<g
   id="g40">
</g>
<g
   id="g42">
</g>
</svg>