<?xml version="1.0" encoding="UTF-8" standalone="no"?>
<svg
   xmlns:dc="http://purl.org/dc/elements/1.1/"
   xmlns:cc="http://creativecommons.org/ns#"
   xmlns:rdf="http://www.w3.org/1999/02/22-rdf-syntax-ns#"
   xmlns:svg="http://www.w3.org/2000/svg"
   xmlns="http://www.w3.org/2000/svg"
   xmlns:sodipodi="http://sodipodi.sourceforge.net/DTD/sodipodi-0.dtd"
   xmlns:inkscape="http://www.inkscape.org/namespaces/inkscape"
   version="1.1"
   viewBox="0 0 129 129"
   enable-background="new 0 0 129 129"
   id="svg8"
   sodipodi:docname="up-rrow (copy 1).svg"
   inkscape:version="0.92.5 (2060ec1f9f, 2020-04-08)">
  <metadata
     id="metadata14">
    <rdf:RDF>
      <cc:Work
         rdf:about="">
        <dc:format>image/svg+xml</dc:format>
        <dc:type
           rdf:resource="http://purl.org/dc/dcmitype/StillImage" />
      </cc:Work>
    </rdf:RDF>
  </metadata>
  <defs
     id="defs12" />
  <sodipodi:namedview
     pagecolor="#ffffff"
     bordercolor="#666666"
     borderopacity="1"
     objecttolerance="10"
     gridtolerance="10"
     guidetolerance="10"
     inkscape:pageopacity="0"
     inkscape:pageshadow="2"
     inkscape:window-width="1366"
     inkscape:window-height="744"
     id="namedview10"
     showgrid="false"
     inkscape:zoom="2.5872434"
     inkscape:cx="68.676664"
     inkscape:cy="84.783951"
     inkscape:window-x="0"
     inkscape:window-y="24"
     inkscape:window-maximized="1"
     inkscape:current-layer="g4" />
  <g
     id="g6">
    <g
       id="g4">
      <path
         d="M 87.381401,101.4186 121.3814,67.418599 c 0.7,-0.7 1.2,-1.8 1.2,-2.9 0,-1.1 -0.5,-2.2 -1.2,-2.9 l -33.999999,-34 c -1.6,-1.6 -4.2,-1.6 -5.8,0 -0.8,0.8 -1.2,1.8 -1.2,2.9 0,1.1 0.4,2.1 1.2,2.9 l 26.999999,27 H 10.481401 c -2.2999999,0 -4.0999999,1.8 -4.0999999,4.1 0,2.3 1.8,4.1 4.0999999,4.1 H 108.5814 l -26.999999,27 c -1.6,1.6 -1.6,4.200001 0,5.800001 1.6,1.6 4.2,1.5 5.8,0 z"
         id="path2"
         inkscape:connector-curvature="0"
         sodipodi:nodetypes="cssssssscssscssc" />
    </g>
  </g>
</svg>
