<?xml version="1.0" encoding="UTF-8" standalone="no"?>
<!-- Generator: Adobe Illustrator 19.1.0, SVG Export Plug-In . SVG Version: 6.00 Build 0)  -->

<svg
   xmlns:dc="http://purl.org/dc/elements/1.1/"
   xmlns:cc="http://creativecommons.org/ns#"
   xmlns:rdf="http://www.w3.org/1999/02/22-rdf-syntax-ns#"
   xmlns:svg="http://www.w3.org/2000/svg"
   xmlns="http://www.w3.org/2000/svg"
   xmlns:sodipodi="http://sodipodi.sourceforge.net/DTD/sodipodi-0.dtd"
   xmlns:inkscape="http://www.inkscape.org/namespaces/inkscape"
   version="1.1"
   id="Capa_1"
   x="0px"
   y="0px"
   viewBox="0 0 451 451"
   style="enable-background:new 0 0 451 451;"
   xml:space="preserve"
   sodipodi:docname="magnifying-glass.svg"
   inkscape:version="0.92.3 (2405546, 2018-03-11)"><metadata
   id="metadata41"><rdf:RDF><cc:Work
       rdf:about=""><dc:format>image/svg+xml</dc:format><dc:type
         rdf:resource="http://purl.org/dc/dcmitype/StillImage" /></cc:Work></rdf:RDF></metadata><defs
   id="defs39" /><sodipodi:namedview
   pagecolor="#ffffff"
   bordercolor="#666666"
   borderopacity="1"
   objecttolerance="10"
   gridtolerance="10"
   guidetolerance="10"
   inkscape:pageopacity="0"
   inkscape:pageshadow="2"
   inkscape:window-width="1366"
   inkscape:window-height="744"
   id="namedview37"
   showgrid="false"
   inkscape:zoom="0.5232816"
   inkscape:cx="225.5"
   inkscape:cy="225.5"
   inkscape:window-x="0"
   inkscape:window-y="24"
   inkscape:window-maximized="1"
   inkscape:current-layer="Capa_1" />
<g
   id="g4">
	<path
   d="M447.05,428l-109.6-109.6c29.4-33.8,47.2-77.9,47.2-126.1C384.65,86.2,298.35,0,192.35,0C86.25,0,0.05,86.3,0.05,192.3   s86.3,192.3,192.3,192.3c48.2,0,92.3-17.8,126.1-47.2L428.05,447c2.6,2.6,6.1,4,9.5,4s6.9-1.3,9.5-4   C452.25,441.8,452.25,433.2,447.05,428z M26.95,192.3c0-91.2,74.2-165.3,165.3-165.3c91.2,0,165.3,74.2,165.3,165.3   s-74.1,165.4-165.3,165.4C101.15,357.7,26.95,283.5,26.95,192.3z"
   id="path2" />
</g>
<g
   id="g6">
</g>
<g
   id="g8">
</g>
<g
   id="g10">
</g>
<g
   id="g12">
</g>
<g
   id="g14">
</g>
<g
   id="g16">
</g>
<g
   id="g18">
</g>
<g
   id="g20">
</g>
<g
   id="g22">
</g>
<g
   id="g24">
</g>
<g
   id="g26">
</g>
<g
   id="g28">
</g>
<g
   id="g30">
</g>
<g
   id="g32">
</g>
<g
   id="g34">
</g>
<flowRoot
   xml:space="preserve"
   id="flowRoot43"
   style="font-style:normal;font-variant:normal;font-weight:normal;font-stretch:normal;font-size:53.33333206px;line-height:1.25;font-family:Ubuntu;-inkscape-font-specification:Ubuntu;letter-spacing:0px;word-spacing:0px;fill:#000000;fill-opacity:1;stroke:none"
   transform="translate(231.23305,55.419492)"><flowRegion
     id="flowRegion45"
     style="font-size:53.33333206px"><rect
       id="rect47"
       width="240.78813"
       height="152.88135"
       x="-150.97034"
       y="57.330505"
       style="font-size:53.33333206px" /></flowRegion><flowPara
     id="flowPara49"
     style="font-style:normal;font-variant:normal;font-weight:normal;font-stretch:normal;font-size:133.33332825px;font-family:'Grand Hotel';-inkscape-font-specification:'Grand Hotel'">Settle</flowPara></flowRoot><path
   style="fill:#d40055;fill-opacity:1;stroke-width:1.91101694"
   d="m 152.69026,223.29463 c -12.38076,-5.12102 -17.52433,-21.7554 -11.55789,-37.37831 3.71035,-9.71542 9.05461,-14.307 16.65228,-14.307 5.6281,0 11.14925,5.98219 11.14925,12.08026 0,6.6633 -6.3855,17.09885 -12.7665,20.86373 -3.48902,2.05857 -6.34367,4.91759 -6.34367,6.35338 0,5.15443 12.08662,8.40895 19.98006,5.37995 6.11655,-2.34714 8.68519,-11.29349 8.68519,-30.24979 v -18.24956 h -5.52859 c -3.27846,0 -6.0007,-1.23029 -6.68856,-3.02283 -1.74656,-4.55148 -1.6631,-4.62124 5.5286,-4.62124 h 6.68855 v -14.33263 c 0,-10.48609 0.66674,-14.33263 2.48433,-14.33263 5.03425,0 7.07076,4.78856 7.07076,16.62585 v 12.03941 h 7.64407 7.64406 v -14.47275 c 0,-12.75267 0.39747,-14.39691 3.34428,-13.83461 2.75338,0.52539 3.44349,3.08259 3.90576,14.47275 l 0.56147,13.83461 h 8.51586 8.51586 v -10.15025 c 0,-11.07156 4.59599,-18.51501 11.43218,-18.51501 12.72526,0 12.89908,31.55828 0.33032,59.97206 -6.54418,14.79421 -4.62827,26.02371 4.44001,26.02371 5.69868,0 10.54815,-6.55637 10.56238,-14.28009 0.0309,-16.76027 9.49184,-31.58432 20.15766,-31.58432 15.05897,0 13.36129,23.84778 -2.40018,33.71608 -2.94059,1.84112 -5.69957,3.60248 -6.13107,3.91415 -0.4315,0.31167 0.77673,2.29186 2.68496,4.40043 5.3146,5.87257 16.80187,5.21435 21.89012,-1.2543 2.20124,-2.79843 4.50677,-7.09822 5.12341,-9.55509 1.46742,-5.84668 6.43987,-5.82513 6.43987,0.0279 0,5.83383 -7.41337,16.7678 -13.43448,19.81452 -7.38528,3.737 -15.97254,2.87632 -23.71332,-2.37672 l -7.10488,-4.8215 -5.73003,4.8215 c -6.99354,5.88468 -12.83274,6.11443 -19.62433,0.77217 l -5.1479,-4.04933 -4.31032,4.04933 c -5.30292,4.98184 -11.52553,5.18736 -16.17853,0.53436 -3.41262,-3.41261 -3.64137,-3.41261 -7.85578,0 -5.59918,4.53395 -12.68072,4.48335 -16.62116,-0.11875 -3.05595,-3.56908 -3.21708,-3.56921 -9.05863,-0.007 -6.20725,3.785 -14.71788,4.51349 -21.23547,1.81763 z m 47.87293,-12.44808 c 1.76085,-4.2143 2.76901,-13.25944 2.76901,-24.84322 v -18.21604 h -7.64406 -7.64407 v 23.56921 c 0,12.96306 0.5733,24.14251 1.27401,24.84322 3.38352,3.38351 8.64028,0.88106 11.24511,-5.35317 z m 23.23267,1.51044 c 2.49367,-3.80581 3.54085,-10.20166 4.08731,-24.96391 l 0.73468,-19.84717 -8.34303,0.59844 -8.34304,0.59845 -0.57791,18.15466 c -0.7427,23.33131 0.53634,30.57627 5.39799,30.57627 2.03027,0 5.20007,-2.30254 7.044,-5.11674 z m -68.37778,-15.20666 c 3.95768,-5.03138 5.42252,-16.76794 2.33125,-18.67845 -3.91711,-2.42091 -8.45542,4.27855 -9.37394,13.83782 -1.07566,11.19457 0.94968,12.58664 7.04269,4.84063 z m 116.34822,0.6436 c 5.41329,-5.76218 7.31691,-15.14791 3.68385,-18.16308 -4.10374,-3.40581 -8.7767,2.79623 -10.25986,13.61708 -1.37365,10.02186 0.32714,11.19762 6.57601,4.546 z m -29.87259,-33.00679 c 2.31694,-15.8965 1.14053,-26.47118 -2.80042,-25.1729 -1.31099,0.43188 -2.56927,5.05775 -2.89591,10.64635 -0.44713,7.65 0.0521,9.88263 2.20986,9.88263 1.84664,0 2.45014,1.29004 1.788,3.82203 -0.54971,2.10212 -1.75914,3.82204 -2.68761,3.82204 -0.92848,0 -1.68814,3.61182 -1.68814,8.02627 0,12.69913 3.55741,6.24143 6.07422,-11.02642 z"
   id="path27"
   inkscape:connector-curvature="0" /><path
   style="fill:#d40055;fill-opacity:1;stroke-width:1.91101694"
   d="m 99.552181,224.77189 c -3.978236,-1.45044 -5.199888,-3.01486 -4.732173,-6.05994 0.388221,-2.52752 1.71449,-3.81157 3.451634,-3.34174 13.500518,3.65133 19.064798,1.4397 19.064798,-7.57766 0,-4.04361 -1.99346,-6.97053 -7.97534,-11.70986 -14.284437,-11.31728 -22.328025,-19.85413 -23.642815,-25.09267 -4.649378,-18.52459 14.899705,-41.42307 35.364065,-41.42307 20.57763,0 20.72468,25.79393 0.2258,39.60812 -7.73107,5.20997 -8.50216,5.27486 -12.70765,1.06938 -3.09385,-3.09385 -2.95292,-3.35959 2.53586,-4.78187 6.68952,-1.73343 17.66618,-13.29446 17.66618,-18.60668 0,-7.07683 -2.2187,-9.645 -8.32628,-9.63774 -13.12788,0.0156 -26.051472,13.6091 -26.064878,27.41595 -0.0076,7.82816 2.421472,10.82467 21.484358,26.50316 4.75218,3.90848 9.18487,9.27597 9.85042,11.92776 1.94271,7.74037 -3.42938,17.94179 -11.14609,21.16603 -7.6219,3.18464 -7.78082,3.19035 -15.047889,0.54083 z"
   id="path29"
   inkscape:connector-curvature="0" /></svg>